<?xml version="1.0" encoding="utf-8"?>
<!-- Generator: Adobe Illustrator 22.0.0, SVG Export Plug-In . SVG Version: 6.00 Build 0)  -->
<svg version="1.1" id="Camada_2" xmlns="http://www.w3.org/2000/svg" xmlns:xlink="http://www.w3.org/1999/xlink" x="0px" y="0px"
	 viewBox="0 0 270 270" style="enable-background:new 0 0 270 270;" xml:space="preserve">
<style type="text/css">
	.st0{fill:#040201;}
	.st1{fill:#1B333A;}
	.st2{fill:#2B494B;stroke:#2B494B;stroke-miterlimit:10;}
	.st3{fill:#343239;}
	.st4{fill:#5D7F7F;stroke:#5D7F7F;stroke-miterlimit:10;}
	.st5{fill:#759091;}
	.st6{fill:#202022;}
	.st7{fill:#202022;stroke:#202022;stroke-miterlimit:10;}
	.st8{fill:#7F7E81;}
	.st9{fill:#358AC5;}
	.st10{fill:#46A8D0;}
	.st11{fill:#38525E;}
	.st12{fill:#D7E9F0;}
	.st13{fill:#322E37;}
	.st14{fill:#46A8D0;stroke:#46A8D0;stroke-width:0.5;stroke-miterlimit:10;}
	.st15{fill:#358AC5;stroke:#358AC5;stroke-width:0.25;stroke-miterlimit:10;}
	.st16{fill:#FFFFFF;}
	.st17{fill:#EB892A;}
</style>
<g id="pineu">
	<path class="st0" d="M83.6,263H71.4c-3,0-5.4-2.4-5.4-5.4v-12.2c0-3,2.4-5.4,5.4-5.4h12.2c3,0,5.4,2.4,5.4,5.4v12.2
		C89,260.6,86.6,263,83.6,263z"/>
	<path class="st0" d="M215.6,263h-12.2c-3,0-5.4-2.4-5.4-5.4v-12.2c0-3,2.4-5.4,5.4-5.4h12.2c3,0,5.4,2.4,5.4,5.4v12.2
		C221,260.6,218.6,263,215.6,263z"/>
</g>
<polygon id="lixeira" class="st1" points="60,127 60,71 227,71 226,130 "/>
<g id="retrovisor">
	<rect x="141" y="71.5" class="st2" width="5.4" height="8.7"/>
	<rect x="131.5" y="80.2" class="st2" width="24.5" height="5.8"/>
</g>
<path id="para-noia" class="st3" d="M224.4,244H62.1c-4.5,0-8.1-3.7-8.1-8.1v-31.8c0-3.9,3.2-7.1,7.1-7.1h165.8
	c3.4,0,6.1,2.8,6.1,6.1v32.3C233,240.1,229.1,244,224.4,244z"/>
<g id="enquadracu">
	<polygon class="st2" points="176.5,115.5 178.5,104.5 199.5,104.5 201.5,115.5 	"/>
	<polygon class="st2" points="82.5,118.5 85.5,104.5 106.5,104.5 109.5,118.5 	"/>
</g>
<g id="volantepica">
	<path class="st4" d="M174.8,113.1c0,0,6.2-6.1,15.2-6.1c10,0,17,7,17,7l-6.1-0.9c0,0,0.6-2.6-10.4-3.6c0,0-7.2,0-11.1,3.5
		L174.8,113.1z"/>
	<g id="console_superior">
		<path class="st5" d="M60,123.2v-0.2c0-0.7,0.3-1.3,0.8-1.8l2.5-2.5c0.5-0.5,1.1-0.8,1.8-0.8h73.8c0.1,0,0.1,0,0.2,0
			c2.7-0.2,74-4.9,78.9,0l7,3c0.7,0.5,1,1.1,1,2v1c0,1.3-3,2.1-4.3,2.2c-5.3,0.5-19.1,1.8-34.7,1.8l-65,1c0,0-49-0.8-60-3.3
			C60.8,125.5,60,124.4,60,123.2z"/>
		<path class="st5" d="M140.3,118"/>
		<path class="st5" d="M206,113l-38.3,0.1L206,113z"/>
		<path class="st5" d="M140,118c0,0,18.2-4.9,33.1-4.9l31.8-0.1c0,0,9,0.9,15.2,6"/>
	</g>
</g>
<g id="oreia">
	<path class="st6" d="M57.5,141.5v-5c0,0-6-1-10-12h-4C43.5,124.5,46.5,136.5,57.5,141.5z"/>
	<path class="st6" d="M50.5,121.5c0,0,0,3-3,3h-7c-3,0-3-3-3-3v-31h13V121.5z"/>
	<path class="st6" d="M37.5,90.5c0,0,0-2,3-2h6c0,0,4,0,4,2"/>
	<path class="st7" d="M43.3,88.5c0,0,2.3-7,4.3-8c0,0,3-2,6-2h5v3c0,0-4,0-6.5,0.5c0,0-5,1-5,7.5L43.3,88.5z"/>
	<path class="st6" d="M229.5,141.5v-5c0,0,6-1,10-12h4C243.5,124.5,240.5,136.5,229.5,141.5z"/>
	<path class="st6" d="M236.5,121.5c0,0,0,3,3,3h7c3,0,3-3,3-3v-31h-13V121.5z"/>
	<path class="st6" d="M249.5,90.5c0,0,0-2-3-2h-6c0,0-4,0-4,2"/>
	<path class="st7" d="M243.8,88.5c0,0-2.3-7-4.3-8c0,0-3-2-6-2h-5v3c0,0,4,0,6.5,0.5c0,0,5,1,5,7.5L243.8,88.5z"/>
</g>
<rect id="capo-_1_" x="60" y="190" class="st8" width="167" height="7"/>
<polygon id="capo_x2B_" class="st9" points="58,125 57,166 229,166 229,125 171,136.4 68,129.6 "/>
<g id="capo_x2B__x2B_">
	<path class="st10" d="M60,190c0,0-6-1-7-14c0,0-1-13,4-15h170c0,0,7-1,6,14c0,0,1,10-6,15H60z"/>
	<path class="st11" d="M68,185h-6c-1.7,0-3-1.3-3-3v-17c0-1.7,1.3-3,3-3h6c1.7,0,3,1.3,3,3v17C71,183.7,69.7,185,68,185z"/>
	<path class="st11" d="M224,185h-6c-1.7,0-3-1.3-3-3v-17c0-1.7,1.3-3,3-3h6c1.7,0,3,1.3,3,3v17C227,183.7,225.7,185,224,185z"/>
</g>
<path id="capo" class="st12" d="M60,125.5c0,0,71,4,88,3c0,0,72.5-1.5,78.5-3.5c0,0-13.5,2.5-22.5,47.5l-3.5,27.5l-3,15
	c0,0,0,11-9,9h-91c0,0-8,1-9-7c0,0-8-58-12-68C76.5,149,69.5,130,60,125.5z"/>
<g id="sei_n">
	<rect x="225" y="71" class="st6" width="4" height="55"/>
	<rect x="58" y="73" class="st6" width="3" height="53"/>
</g>
<g id="Radiador">
	<rect x="98" y="145" class="st13" width="90" height="7"/>
	<rect x="99" y="160" class="st13" width="88" height="6"/>
	<rect x="101" y="173" class="st13" width="84" height="6"/>
	<rect x="102" y="186" class="st13" width="82" height="6"/>
	<rect x="103" y="198" class="st13" width="80" height="5"/>
	<rect x="104" y="210" class="st13" width="78" height="4"/>
</g>
<g id="chapeu">
	<g>
		<path class="st10" d="M198,25c21.9,0,24,21,24,21c-3.1-2-24-3-24-3V25z"/>
		<rect x="91" y="25" class="st10" width="109" height="22"/>
		<path class="st10" d="M73,44"/>
		<path class="st10" d="M94,25c-26.5,0-29,20-29,20c3.6-1,29-2,29-2V25z"/>
	</g>
	<path class="st14" d="M77.5,71.5c0,0-11.5-0.5-20.5,3.5c0,0-1-2,1-6c0,0,7-5,32-3h128l10,1c0,0,4,9,1,8c0,0-7.5-2.5-13.5-2.5
		s0.1,0,0,0h-19L77.5,71.5z"/>
	<g>
		<path class="st9" d="M58,69l7-24c0,0,6-2,18-2L70,66C70,66,64,66,58,69z"/>
		<path class="st15" d="M229,69l-7.6-24c0,0-6.5-2-19.4-2l14,23C216,66,222.5,66,229,69z"/>
		<polygon class="st9" points="79.5,43 205.3,43 220,66 65,66 		"/>
	</g>
</g>
<g id="luzinha">
	<g>
		<path class="st16" d="M60,216v-13h21.7c0.7,0,1.4,0.5,1.6,1.1l2.8,8.7c0.5,1.6-0.7,3.2-2.4,3.2H60z"/>
		<rect x="55" y="203" class="st17" width="5" height="13"/>
	</g>
	<g>
		<path class="st16" d="M226,216v-13h-21.7c-0.7,0-1.4,0.5-1.6,1.1l-2.8,8.7c-0.5,1.6,0.7,3.2,2.4,3.2H226z"/>
		<rect x="226" y="203" class="st17" width="5" height="13"/>
	</g>
</g>
</svg>
